<svg width="29" height="29" viewBox="0 0 29 29" fill="none" xmlns="http://www.w3.org/2000/svg">
<path d="M16.0792 28.6638L13.7275 23.2238C15.9942 22.4021 18.0767 21.3113 20.0033 20.008L16.065 28.6638M5.44 14.9363L0 12.5988L8.65583 8.66047C7.32673 10.6103 6.24642 12.7186 5.44 14.9363ZM28.1208 0.557139C28.1208 0.557139 31.1242 7.58381 23.0917 15.6446C19.975 18.7188 16.6033 20.603 13.5575 21.793C12.5092 22.1896 11.3333 21.9346 10.5542 21.1413L7.53667 18.1238C6.74333 17.3305 6.48833 16.1688 6.87083 15.1063C8.06083 12.103 9.945 8.6888 13.0192 5.57214C21.08 -2.46603 28.1208 0.557139 28.1208 0.557139ZM6.29 28.3946H4.2925L10.0867 22.5863C10.5117 22.8838 10.9792 23.0963 11.4608 23.2238L6.29 28.3946ZM0.269167 28.3946V26.3971L7.02667 19.6255L9.0525 21.6371L2.26667 28.3946H0.269167ZM0.269167 24.3713V22.3738L5.44 17.203C5.5675 17.6988 5.78 18.1663 6.0775 18.5771L0.269167 24.3713ZM20.1025 5.72797C19.3511 5.72797 18.6304 6.02648 18.099 6.55784C17.5677 7.08919 17.2692 7.80986 17.2692 8.56131C17.2692 9.31275 17.5677 10.0334 18.099 10.5648C18.6304 11.0961 19.3511 11.3946 20.1025 11.3946C21.675 11.3946 22.9358 10.1338 22.9358 8.56131C22.9358 7.80986 22.6373 7.08919 22.106 6.55784C21.5746 6.02648 20.8539 5.72797 20.1025 5.72797Z" fill="#01AAFF"/>
</svg>
