<svg width="32" height="32" viewBox="0 0 32 32" fill="none" xmlns="http://www.w3.org/2000/svg">
<path d="M12.1428 7.26384C12.9401 4.9305 16.1641 4.85984 17.1095 7.05184L17.1895 7.26517L18.2655 10.4118C18.5121 11.1335 18.9105 11.7939 19.434 12.3484C19.9575 12.903 20.5939 13.3388 21.3001 13.6265L21.5895 13.7345L24.7361 14.8092C27.0695 15.6065 27.1401 18.8305 24.9495 19.7758L24.7361 19.8558L21.5895 20.9318C20.8676 21.1783 20.207 21.5767 19.6522 22.1002C19.0974 22.6237 18.6613 23.2601 18.3735 23.9665L18.2655 24.2545L17.1908 27.4025C16.3935 29.7358 13.1695 29.8065 12.2255 27.6158L12.1428 27.4025L11.0681 24.2558C10.8217 23.5339 10.4233 22.8733 9.89979 22.3185C9.37629 21.7637 8.73986 21.3277 8.03347 21.0398L7.74547 20.9318L4.59881 19.8572C2.26414 19.0598 2.19347 15.8358 4.38547 14.8918L4.59881 14.8092L7.74547 13.7345C8.46712 13.4879 9.12749 13.0894 9.68204 12.5659C10.2366 12.0424 10.6724 11.4061 10.9601 10.6998L11.0681 10.4118L12.1428 7.26384ZM25.3335 2.6665C25.5829 2.6665 25.8274 2.73647 26.039 2.86847C26.2507 3.00046 26.4211 3.18917 26.5308 3.41317L26.5948 3.56917L27.0615 4.93717L28.4308 5.40384C28.6808 5.48877 28.8999 5.64599 29.0604 5.85559C29.221 6.06519 29.3157 6.31773 29.3325 6.5812C29.3494 6.84467 29.2876 7.10721 29.1551 7.33555C29.0226 7.5639 28.8253 7.74776 28.5881 7.86384L28.4308 7.92784L27.0628 8.3945L26.5961 9.76384C26.5111 10.0137 26.3537 10.2328 26.144 10.3932C25.9344 10.5536 25.6818 10.6481 25.4183 10.6648C25.1549 10.6815 24.8924 10.6196 24.6641 10.487C24.4359 10.3544 24.2521 10.157 24.1361 9.91984L24.0721 9.76384L23.6055 8.39584L22.2361 7.92917C21.9862 7.84424 21.767 7.68702 21.6065 7.47742C21.446 7.26782 21.3513 7.01528 21.3344 6.75181C21.3176 6.48834 21.3793 6.2258 21.5118 5.99745C21.6444 5.76911 21.8417 5.58525 22.0788 5.46917L22.2361 5.40517L23.6041 4.9385L24.0708 3.56917C24.1607 3.30574 24.3308 3.07705 24.5573 2.91517C24.7837 2.75329 25.0551 2.66634 25.3335 2.6665Z" fill="url(#paint0_linear_408_2583)"/>
<defs>
<linearGradient id="paint0_linear_408_2583" x1="2.79297" y1="15.9369" x2="29.3352" y2="15.9369" gradientUnits="userSpaceOnUse">
<stop stop-color="white"/>
<stop offset="1" stop-color="#CCEEFF"/>
</linearGradient>
</defs>
</svg>
