<svg width="24" height="24" viewBox="0 0 24 24" fill="none" xmlns="http://www.w3.org/2000/svg">
<path d="M12 1.5C9.81276 1.50258 7.71584 2.3726 6.16922 3.91922C4.62261 5.46584 3.75259 7.56276 3.75001 9.75C3.74799 11.5373 4.33179 13.276 5.41201 14.7C5.41201 14.7 5.63701 14.9963 5.67376 15.039L12 22.5L18.3293 15.0353C18.3623 14.9955 18.588 14.7 18.588 14.7L18.5888 14.6978C19.6682 13.2743 20.2517 11.5365 20.25 9.75C20.2474 7.56276 19.3774 5.46584 17.8308 3.91922C16.2842 2.3726 14.1872 1.50258 12 1.5ZM12.75 13.5H11.25V12H12.75V13.5ZM12.75 10.5H11.25V9H12.75V10.5ZM15.75 13.5H14.25V7.5H9.75V13.5H8.25V7.5C8.25 7.10218 8.40804 6.72064 8.68934 6.43934C8.97065 6.15804 9.35218 6 9.75 6H14.25C14.6478 6 15.0294 6.15804 15.3107 6.43934C15.592 6.72064 15.75 7.10218 15.75 7.5V13.5Z" fill="url(#paint0_linear_408_2509)"/>
<defs>
<linearGradient id="paint0_linear_408_2509" x1="3.75" y1="12" x2="20.25" y2="12" gradientUnits="userSpaceOnUse">
<stop stop-color="white"/>
<stop offset="1" stop-color="#CCEEFF"/>
</linearGradient>
</defs>
</svg>
