<svg width="37" height="36" viewBox="0 0 37 36" fill="none" xmlns="http://www.w3.org/2000/svg">
<path fill-rule="evenodd" clip-rule="evenodd" d="M15.8857 18.9692L12.5137 17.8457C8.98425 16.6697 7.21875 16.0817 7.21875 15.0002C7.21875 13.9202 8.98425 13.3307 12.5137 12.1547L25.2832 7.89766C27.7672 7.06966 29.0092 6.65566 29.6647 7.31116C30.3202 7.96666 29.9062 9.20866 29.0797 11.6912L24.8212 24.4622C23.6453 27.9917 23.0572 29.7572 21.9757 29.7572C20.8957 29.7572 20.3062 27.9917 19.1302 24.4622L18.0052 21.0917L24.5362 14.5607C24.8095 14.2778 24.9607 13.8989 24.9573 13.5056C24.9538 13.1123 24.7961 12.736 24.518 12.4579C24.2399 12.1798 23.8636 12.0221 23.4703 12.0186C23.0771 12.0152 22.6982 12.1664 22.4152 12.4397L15.8857 18.9692Z" fill="white"/>
</svg>
