<svg width="126" height="35" viewBox="0 0 126 35" fill="none" xmlns="http://www.w3.org/2000/svg">
<path d="M13.6445 34.5391C9.63151 34.5391 6.46452 33.5283 4.14355 31.5068C1.83757 29.4704 0.68457 26.6852 0.68457 23.1514H5.6709C5.68587 25.3525 6.38965 27.0745 7.78223 28.3174C9.18978 29.5602 11.1439 30.1816 13.6445 30.1816C15.9206 30.1816 17.7399 29.7025 19.1025 28.7441C20.4801 27.7708 21.1689 26.4681 21.1689 24.8359C21.1689 23.5482 20.6748 22.5075 19.6865 21.7139C18.7132 20.9053 17.0661 20.224 14.7451 19.6699L11.084 18.7939C7.69987 17.9854 5.22917 16.8623 3.67188 15.4248C2.12956 13.9723 1.3584 12.0856 1.3584 9.76465C1.3584 7.80306 1.85254 6.08854 2.84082 4.62109C3.8291 3.15365 5.21419 2.01562 6.99609 1.20703C8.79297 0.398438 10.8893 -0.00585938 13.2852 -0.00585938C16.8939 -0.00585938 19.7614 0.9375 21.8877 2.82422C24.029 4.71094 25.152 7.28646 25.2568 10.5508H20.4277C20.3079 8.61914 19.6042 7.10677 18.3164 6.01367C17.0286 4.9056 15.3291 4.35156 13.2178 4.35156C11.1963 4.35156 9.54167 4.83822 8.25391 5.81152C6.96615 6.76986 6.32227 8.00521 6.32227 9.51758C6.32227 10.7305 6.81641 11.7188 7.80469 12.4824C8.79297 13.2311 10.4326 13.8825 12.7236 14.4365L16.3398 15.29C19.694 16.0837 22.1647 17.2292 23.752 18.7266C25.3542 20.224 26.1553 22.1706 26.1553 24.5664C26.1553 26.5729 25.6387 28.3249 24.6055 29.8223C23.5723 31.3197 22.1198 32.4801 20.248 33.3037C18.3763 34.1273 16.1751 34.5391 13.6445 34.5391ZM33.872 20.3438V34H29.1327V0.533203H33.872V13.6953C35.5041 11.1048 37.8625 9.80957 40.9471 9.80957C42.5793 9.80957 44.0393 10.1689 45.327 10.8877C46.6298 11.5915 47.6555 12.6396 48.4042 14.0322C49.1529 15.4248 49.5272 17.1543 49.5272 19.2207V34H44.788V19.8047C44.788 17.903 44.3313 16.473 43.4179 15.5146C42.5044 14.5413 41.2317 14.0547 39.5995 14.0547C37.9823 14.0547 36.6197 14.5563 35.5116 15.5596C34.4185 16.5479 33.872 18.1426 33.872 20.3438ZM53.4929 34V10.2812H58.2322V34H53.4929ZM55.8513 6.19336C55.0128 6.19336 54.3015 5.91634 53.7175 5.3623C53.1485 4.79329 52.864 4.10449 52.864 3.2959C52.864 2.47233 53.1485 1.78353 53.7175 1.22949C54.3015 0.660482 55.0128 0.375977 55.8513 0.375977C56.6899 0.375977 57.4011 0.660482 57.9851 1.22949C58.5691 1.78353 58.8611 2.47233 58.8611 3.2959C58.8611 4.10449 58.5691 4.79329 57.9851 5.3623C57.4011 5.91634 56.6899 6.19336 55.8513 6.19336ZM69.1159 34L60.0866 10.2812H65.1627L69.8795 23.2861C70.209 24.2145 70.5234 25.1429 70.8229 26.0713C71.1224 26.9997 71.4218 27.9206 71.7213 28.834C72.0208 27.9206 72.3203 26.9997 72.6198 26.0713C72.9192 25.1429 73.2262 24.2145 73.5407 23.2861L78.1901 10.2812H83.1989L74.1471 34H69.1159ZM79.5952 34L91.7466 0.533203H97.7661L109.828 34H104.415L101.45 25.3076H87.9507L84.896 34H79.5952ZM89.4556 21.0625H99.9898L97.9683 15.1328C97.5191 13.7552 97.0399 12.2803 96.5308 10.708C96.0217 9.13574 95.4377 7.264 94.7788 5.09277C94.105 7.264 93.5135 9.13574 93.0044 10.708C92.4953 12.2803 92.0086 13.7552 91.5445 15.1328L89.4556 21.0625ZM111.525 34V10.2812H116.264V34H111.525ZM113.883 6.19336C113.045 6.19336 112.333 5.91634 111.749 5.3623C111.18 4.79329 110.896 4.10449 110.896 3.2959C110.896 2.47233 111.18 1.78353 111.749 1.22949C112.333 0.660482 113.045 0.375977 113.883 0.375977C114.722 0.375977 115.433 0.660482 116.017 1.22949C116.601 1.78353 116.893 2.47233 116.893 3.2959C116.893 4.10449 116.601 4.79329 116.017 5.3623C115.433 5.91634 114.722 6.19336 113.883 6.19336ZM122.813 34.3818C121.944 34.3818 121.203 34.0824 120.589 33.4834C119.99 32.8695 119.691 32.1208 119.691 31.2373C119.691 30.3688 119.99 29.6276 120.589 29.0137C121.203 28.3997 121.944 28.0928 122.813 28.0928C123.696 28.0928 124.437 28.3997 125.036 29.0137C125.65 29.6276 125.957 30.3688 125.957 31.2373C125.957 32.1208 125.65 32.8695 125.036 33.4834C124.437 34.0824 123.696 34.3818 122.813 34.3818Z" fill="url(#paint0_linear_715_53614)"/>
<defs>
<linearGradient id="paint0_linear_715_53614" x1="-49.2874" y1="-15" x2="97.4966" y2="-102.793" gradientUnits="userSpaceOnUse">
<stop stop-color="white"/>
<stop offset="1" stop-color="#3DCAFF"/>
</linearGradient>
</defs>
</svg>
