<svg width="24" height="25" viewBox="0 0 24 25" fill="none" xmlns="http://www.w3.org/2000/svg">
<path d="M20.25 7.23535H3.75C3.33579 7.23535 3 7.57114 3 7.98535C3 8.39957 3.33579 8.73535 3.75 8.73535H20.25C20.6642 8.73535 21 8.39957 21 7.98535C21 7.57114 20.6642 7.23535 20.25 7.23535Z" fill="white"/>
<path d="M17.25 11.4854H3.75C3.33579 11.4854 3 11.8211 3 12.2354C3 12.6496 3.33579 12.9854 3.75 12.9854H17.25C17.6642 12.9854 18 12.6496 18 12.2354C18 11.8211 17.6642 11.4854 17.25 11.4854Z" fill="white"/>
<path d="M20.25 15.7334H3.75C3.33579 15.7334 3 16.0692 3 16.4834C3 16.8976 3.33579 17.2334 3.75 17.2334H20.25C20.6642 17.2334 21 16.8976 21 16.4834C21 16.0692 20.6642 15.7334 20.25 15.7334Z" fill="white"/>
</svg>
