<svg width="72" height="72" viewBox="0 0 72 72" fill="none" xmlns="http://www.w3.org/2000/svg">
<g clip-path="url(#clip0_366_37036)">
<path d="M9.79289 0.523438C7.4443 0.523438 5.19189 1.45641 3.53119 3.11712C1.87048 4.77783 0.9375 7.03024 0.9375 9.37883L0.9375 62.5112C0.9375 64.8598 1.87048 67.1122 3.53119 68.7729C5.19189 70.4336 7.4443 71.3666 9.79289 71.3666H62.9253C65.2739 71.3666 67.5263 70.4336 69.187 68.7729C70.8477 67.1122 71.7807 64.8598 71.7807 62.5112V9.37883C71.7807 7.03024 70.8477 4.77783 69.187 3.11712C67.5263 1.45641 65.2739 0.523438 62.9253 0.523438L9.79289 0.523438ZM37.3597 24.3666C34.774 24.3666 33.211 25.0927 33.211 26.9922C33.211 29.0644 35.8986 29.9765 39.2327 31.11C44.6699 32.9475 51.825 35.3738 51.856 44.3621C51.856 53.0713 44.878 58.0835 34.7208 58.0835C30.1387 58.0643 25.6075 57.1216 21.3979 55.3118V43.7289C25.4979 45.9693 30.6739 47.6253 34.7253 47.6253C37.4571 47.6253 39.4098 46.8947 39.4098 44.6543C39.4098 42.3607 36.4963 41.3114 32.9763 40.0451C27.6188 38.1146 20.8621 35.6794 20.8621 27.5767C20.8621 18.9648 27.4506 13.8065 37.3597 13.8065C41.5008 13.7695 45.6105 14.5286 49.4651 16.0425V27.4793C45.7547 25.4868 41.0701 24.3666 37.3597 24.3666Z" fill="white"/>
</g>
<defs>
<clipPath id="clip0_366_37036">
<rect width="70.8432" height="70.8432" fill="white" transform="translate(0.9375 0.523438)"/>
</clipPath>
</defs>
</svg>
