<svg width="21" height="20" viewBox="0 0 21 20" fill="none" xmlns="http://www.w3.org/2000/svg">
<path d="M8.20962 4.53996C8.70795 3.08163 10.7229 3.03746 11.3138 4.40746L11.3638 4.54079L12.0363 6.50746C12.1904 6.95849 12.4395 7.37122 12.7666 7.71781C13.0938 8.06441 13.4915 8.3368 13.933 8.51663L14.1138 8.58413L16.0804 9.25579C17.5388 9.75413 17.5829 11.7691 16.2138 12.36L16.0804 12.41L14.1138 13.0825C13.6626 13.2365 13.2497 13.4855 12.903 13.8127C12.5562 14.1399 12.2837 14.5376 12.1038 14.9791L12.0363 15.1591L11.3646 17.1266C10.8663 18.585 8.85128 18.6291 8.26128 17.26L8.20962 17.1266L7.53795 15.16C7.38393 14.7088 7.13493 14.2959 6.80773 13.9491C6.48054 13.6024 6.08278 13.3299 5.64128 13.15L5.46128 13.0825L3.49461 12.4108C2.03545 11.9125 1.99128 9.89746 3.36128 9.30746L3.49461 9.25579L5.46128 8.58413C5.91231 8.43001 6.32504 8.18095 6.67163 7.85377C7.01823 7.52658 7.29063 7.12887 7.47045 6.68746L7.53795 6.50746L8.20962 4.53996ZM16.4538 1.66663C16.6097 1.66663 16.7625 1.71036 16.8947 1.79285C17.027 1.87535 17.1335 1.99329 17.2021 2.13329L17.2421 2.23079L17.5338 3.08579L18.3896 3.37746C18.5459 3.43054 18.6828 3.52881 18.7831 3.65981C18.8835 3.79081 18.9426 3.94864 18.9532 4.11331C18.9637 4.27798 18.9251 4.44207 18.8423 4.58478C18.7595 4.7275 18.6362 4.84241 18.4879 4.91496L18.3896 4.95496L17.5346 5.24663L17.2429 6.10246C17.1898 6.25865 17.0914 6.39554 16.9604 6.49579C16.8293 6.59603 16.6715 6.65512 16.5068 6.66556C16.3422 6.676 16.1781 6.63733 16.0354 6.55444C15.8928 6.47155 15.7779 6.34818 15.7054 6.19996L15.6655 6.10246L15.3738 5.24746L14.5179 4.95579C14.3617 4.90271 14.2248 4.80445 14.1244 4.67345C14.0241 4.54245 13.9649 4.38461 13.9544 4.21994C13.9439 4.05527 13.9824 3.89118 14.0653 3.74847C14.1481 3.60576 14.2714 3.49084 14.4196 3.41829L14.5179 3.37829L15.3729 3.08663L15.6646 2.23079C15.7208 2.06615 15.8271 1.92322 15.9686 1.82204C16.1102 1.72087 16.2798 1.66652 16.4538 1.66663Z" fill="url(#paint0_linear_216_1155)"/>
<defs>
<linearGradient id="paint0_linear_216_1155" x1="2.36597" y1="9.96064" x2="18.9549" y2="9.96064" gradientUnits="userSpaceOnUse">
<stop stop-color="white"/>
<stop offset="1" stop-color="#01ACFF"/>
</linearGradient>
</defs>
</svg>
