<svg width="456" height="323" viewBox="0 0 456 323" fill="none" xmlns="http://www.w3.org/2000/svg">
<g clip-path="url(#clip0_97_253)">
<mask id="path-1-inside-1_97_253" fill="white">
<path d="M0 24C0 10.7452 10.7452 0 24 0H432C445.255 0 456 10.7452 456 24V323H0V24Z"/>
</mask>
<path d="M0 24C0 10.7452 10.7452 0 24 0H432C445.255 0 456 10.7452 456 24V323H0V24Z" fill="url(#paint0_linear_97_253)"/>
<g clip-path="url(#clip1_97_253)">
<path d="M31.2 202.599V-83.8398M61.2 202.599V-83.8398M91.2 202.599V-83.8398M121.2 202.599V-83.8398M151.2 202.599V-83.8398M181.2 202.599V-83.8398M211.2 202.599V-83.8398M241.2 202.599V-83.8398M211.2 216.921V-69.5179M301.2 202.599V-83.8398M331.2 202.599V-83.8398M361.2 202.599V-83.8398M391.2 202.599V-83.8398M421.2 202.599V-83.8398M453.6 157.246H1.04907e-05M453.6 127.409H9.17939e-06M453.6 97.5715H7.86805e-06M453.6 67.7341H6.5567e-06M453.6 37.8967H5.24537e-06M453.6 8.05935H3.93402e-06M453.6 -21.7781H2.62268e-06M453.6 -51.6155H1.31135e-06M453.6 -81.4529L0 -81.4529" stroke="url(#paint1_linear_97_253)" stroke-opacity="0.15" stroke-width="1.2" stroke-dasharray="1.19 1.19"/>
<g style="mix-blend-mode:plus-lighter">
<path d="M469.551 434.364L469.975 434.789L470.399 435.213L952.799 -47.1875L951.951 -48.0352L469.551 434.364ZM462.348 434.364L462.771 434.789L463.196 435.213L945.596 -47.1875L944.748 -48.0352L462.348 434.364ZM455.152 434.364L455.576 434.789L456.001 435.213L938.4 -47.1875L937.553 -48.0352L455.152 434.364ZM447.949 434.364L448.373 434.789L448.798 435.213L931.197 -47.1875L930.35 -48.0352L447.949 434.364ZM440.754 434.364L441.178 434.789L441.603 435.213L924.002 -47.1875L923.154 -48.0352L440.754 434.364ZM433.551 434.364L433.975 434.789L434.399 435.213L916.799 -47.1875L915.951 -48.0352L433.551 434.364ZM426.348 434.364L426.771 434.789L427.196 435.213L909.596 -47.1875L908.748 -48.0352L426.348 434.364ZM419.152 434.364L419.576 434.789L420.001 435.213L902.4 -47.1875L901.553 -48.0352L419.152 434.364ZM411.949 434.364L412.373 434.789L412.798 435.213L895.197 -47.1875L894.35 -48.0352L411.949 434.364ZM404.754 434.364L405.178 434.789L405.603 435.213L888.002 -47.1875L887.154 -48.0352L404.754 434.364ZM397.551 434.364L397.975 434.789L398.399 435.213L880.799 -47.1875L879.951 -48.0352L397.551 434.364ZM390.348 434.364L390.771 434.789L391.196 435.213L873.596 -47.1875L872.748 -48.0352L390.348 434.364ZM383.152 434.364L383.576 434.789L384.001 435.213L866.4 -47.1875L865.553 -48.0352L383.152 434.364ZM375.949 434.364L376.373 434.789L376.798 435.213L859.197 -47.1875L858.35 -48.0352L375.949 434.364ZM368.754 434.364L369.178 434.789L369.603 435.213L852.002 -47.1875L851.154 -48.0352L368.754 434.364ZM361.551 434.364L361.975 434.789L362.399 435.213L844.799 -47.1875L843.951 -48.0352L361.551 434.364ZM354.348 434.364L354.771 434.789L355.196 435.213L837.596 -47.1875L836.748 -48.0352L354.348 434.364ZM347.152 434.364L347.576 434.789L348.001 435.213L830.4 -47.1875L829.553 -48.0352L347.152 434.364ZM339.949 434.364L340.373 434.789L340.798 435.213L823.197 -47.1875L822.35 -48.0352L339.949 434.364ZM332.754 434.364L333.178 434.789L333.603 435.213L816.002 -47.1875L815.154 -48.0352L332.754 434.364ZM325.551 434.364L325.975 434.789L326.399 435.213L808.799 -47.1875L807.951 -48.0352L325.551 434.364ZM318.348 434.364L318.771 434.789L319.196 435.213L801.596 -47.1875L800.748 -48.0352L318.348 434.364ZM311.152 434.364L311.576 434.789L312.001 435.213L794.4 -47.1875L793.553 -48.0352L311.152 434.364ZM303.949 434.364L304.373 434.789L304.798 435.213L787.197 -47.1875L786.35 -48.0352L303.949 434.364ZM296.754 434.364L297.178 434.789L297.603 435.213L780.002 -47.1875L779.154 -48.0352L296.754 434.364ZM289.551 434.364L289.975 434.789L290.399 435.213L772.799 -47.1875L771.951 -48.0352L289.551 434.364ZM282.348 434.364L282.771 434.789L283.196 435.213L765.596 -47.1875L764.748 -48.0352L282.348 434.364ZM275.152 434.364L275.576 434.789L276.001 435.213L758.4 -47.1875L757.553 -48.0352L275.152 434.364ZM267.949 434.364L268.373 434.789L268.798 435.213L751.197 -47.1875L750.35 -48.0352L267.949 434.364ZM260.754 434.364L261.178 434.789L261.603 435.213L744.002 -47.1875L743.154 -48.0352L260.754 434.364ZM253.551 434.364L253.975 434.789L254.399 435.213L736.799 -47.1875L735.951 -48.0352L253.551 434.364ZM246.348 434.364L246.771 434.789L247.196 435.213L729.596 -47.1875L728.748 -48.0352L246.348 434.364ZM239.152 434.364L239.576 434.789L240.001 435.213L722.4 -47.1875L721.553 -48.0352L239.152 434.364ZM231.949 434.364L232.373 434.789L232.798 435.213L715.197 -47.1875L714.35 -48.0352L231.949 434.364ZM224.754 434.364L225.178 434.789L225.603 435.213L708.002 -47.1875L707.154 -48.0352L224.754 434.364ZM217.551 434.364L217.975 434.789L218.399 435.213L700.799 -47.1875L699.951 -48.0352L217.551 434.364ZM210.348 434.364L210.771 434.789L211.196 435.213L693.596 -47.1875L692.748 -48.0352L210.348 434.364ZM203.152 434.364L203.576 434.789L204.001 435.213L686.4 -47.1875L685.553 -48.0352L203.152 434.364ZM195.949 434.364L196.373 434.789L196.798 435.213L679.197 -47.1875L678.35 -48.0352L195.949 434.364ZM188.754 434.364L189.178 434.789L189.603 435.213L672.002 -47.1875L671.154 -48.0352L188.754 434.364ZM181.551 434.364L181.975 434.789L182.399 435.213L664.799 -47.1875L663.951 -48.0352L181.551 434.364ZM174.348 434.364L174.771 434.789L175.196 435.213L657.596 -47.1875L656.748 -48.0352L174.348 434.364ZM167.152 434.364L167.576 434.789L168.001 435.213L650.4 -47.1875L649.553 -48.0352L167.152 434.364ZM159.949 434.364L160.373 434.789L160.798 435.213L643.197 -47.1875L642.35 -48.0352L159.949 434.364ZM152.754 434.364L153.178 434.789L153.603 435.213L636.002 -47.1875L635.154 -48.0352L152.754 434.364ZM145.551 434.364L145.975 434.789L146.399 435.213L628.799 -47.1875L627.951 -48.0352L145.551 434.364ZM138.348 434.364L138.771 434.789L139.196 435.213L621.596 -47.1875L620.748 -48.0352L138.348 434.364ZM131.152 434.364L131.576 434.789L132.001 435.213L614.4 -47.1875L613.553 -48.0352L131.152 434.364ZM123.949 434.364L124.373 434.789L124.798 435.213L607.197 -47.1875L606.35 -48.0352L123.949 434.364ZM116.754 434.364L117.178 434.789L117.603 435.213L600.002 -47.1875L599.154 -48.0352L116.754 434.364ZM109.551 434.364L109.975 434.789L110.399 435.213L592.799 -47.1875L591.951 -48.0352L109.551 434.364ZM102.348 434.364L102.771 434.789L103.196 435.213L585.596 -47.1875L584.748 -48.0352L102.348 434.364ZM95.1523 434.364L95.5762 434.789L96.001 435.213L578.4 -47.1875L577.553 -48.0352L95.1523 434.364ZM87.9492 434.364L88.373 434.789L88.7979 435.213L571.197 -47.1875L570.35 -48.0352L87.9492 434.364ZM80.7539 434.364L81.1777 434.789L81.6025 435.213L564.002 -47.1875L563.154 -48.0352L80.7539 434.364ZM73.5508 434.364L73.9746 434.789L74.3994 435.213L556.799 -47.1875L555.951 -48.0352L73.5508 434.364ZM66.3477 434.364L66.7715 434.789L67.1963 435.213L549.596 -47.1875L548.748 -48.0352L66.3477 434.364ZM59.1523 434.364L59.5762 434.789L60.001 435.213L542.4 -47.1875L541.553 -48.0352L59.1523 434.364ZM51.9492 434.364L52.373 434.789L52.7979 435.213L535.197 -47.1875L534.35 -48.0352L51.9492 434.364ZM44.7539 434.364L45.1777 434.789L45.6025 435.213L528.002 -47.1875L527.154 -48.0352L44.7539 434.364ZM37.5508 434.364L37.9746 434.789L38.3994 435.213L520.799 -47.1875L519.951 -48.0352L37.5508 434.364ZM30.3477 434.364L30.7715 434.789L31.1963 435.213L513.596 -47.1875L512.748 -48.0352L30.3477 434.364ZM23.1523 434.364L23.5762 434.789L24.001 435.213L506.4 -47.1875L505.553 -48.0352L23.1523 434.364ZM15.9492 434.364L16.373 434.789L16.7979 435.213L499.197 -47.1875L498.35 -48.0352L15.9492 434.364ZM8.75391 434.364L9.17773 434.789L9.60254 435.213L492.002 -47.1875L491.154 -48.0352L8.75391 434.364ZM1.55078 434.364L1.97461 434.789L2.39941 435.213L484.799 -47.1875L483.951 -48.0352L1.55078 434.364ZM-5.65234 434.364L-5.22852 434.789L-4.80371 435.213L477.596 -47.1875L476.748 -48.0352L-5.65234 434.364ZM-12.8477 434.364L-12.4238 434.789L-11.999 435.213L470.4 -47.1875L469.553 -48.0352L-12.8477 434.364ZM-20.0508 434.364L-19.627 434.789L-19.2021 435.213L463.197 -47.1875L462.35 -48.0352L-20.0508 434.364ZM-27.2461 434.364L-26.8223 434.789L-26.3975 435.213L456.002 -47.1875L455.154 -48.0352L-27.2461 434.364ZM-34.4492 434.364L-34.0254 434.789L-33.6006 435.213L448.799 -47.1875L447.951 -48.0352L-34.4492 434.364ZM-41.6523 434.364L-41.2285 434.789L-40.8037 435.213L441.596 -47.1875L440.748 -48.0352L-41.6523 434.364ZM-48.8477 434.364L-48.4238 434.789L-47.999 435.213L434.4 -47.1875L433.553 -48.0352L-48.8477 434.364ZM-56.0508 434.364L-55.627 434.789L-55.2021 435.213L427.197 -47.1875L426.35 -48.0352L-56.0508 434.364ZM-63.2461 434.364L-62.8223 434.789L-62.3975 435.213L420.002 -47.1875L419.154 -48.0352L-63.2461 434.364ZM-70.4492 434.364L-70.0254 434.789L-69.6006 435.213L412.799 -47.1875L411.951 -48.0352L-70.4492 434.364ZM-77.6523 434.364L-77.2285 434.789L-76.8037 435.213L405.596 -47.1875L404.748 -48.0352L-77.6523 434.364ZM-84.8477 434.364L-84.4238 434.789L-83.999 435.213L398.4 -47.1875L397.553 -48.0352L-84.8477 434.364ZM-92.0508 434.364L-91.627 434.789L-91.2021 435.213L391.197 -47.1875L390.35 -48.0352L-92.0508 434.364ZM-99.2461 434.364L-98.8223 434.789L-98.3975 435.213L384.002 -47.1875L383.154 -48.0352L-99.2461 434.364ZM-106.449 434.364L-106.025 434.789L-105.601 435.213L376.799 -47.1875L375.951 -48.0352L-106.449 434.364ZM-113.652 434.364L-113.229 434.789L-112.804 435.213L369.596 -47.1875L368.748 -48.0352L-113.652 434.364ZM-120.848 434.364L-120.424 434.789L-119.999 435.213L362.4 -47.1875L361.553 -48.0352L-120.848 434.364ZM-128.051 434.364L-127.627 434.789L-127.202 435.213L355.197 -47.1875L354.35 -48.0352L-128.051 434.364ZM-135.246 434.364L-134.822 434.789L-134.397 435.213L348.002 -47.1875L347.154 -48.0352L-135.246 434.364ZM-142.449 434.364L-142.025 434.789L-141.601 435.213L340.799 -47.1875L339.951 -48.0352L-142.449 434.364ZM-149.652 434.364L-149.229 434.789L-148.804 435.213L333.596 -47.1875L332.748 -48.0352L-149.652 434.364ZM-156.848 434.364L-156.424 434.789L-155.999 435.213L326.4 -47.1875L325.553 -48.0352L-156.848 434.364ZM-164.051 434.364L-163.627 434.789L-163.202 435.213L319.197 -47.1875L318.35 -48.0352L-164.051 434.364ZM-171.246 434.364L-170.822 434.789L-170.397 435.213L312.002 -47.1875L311.154 -48.0352L-171.246 434.364ZM-178.449 434.364L-178.025 434.789L-177.601 435.213L304.799 -47.1875L303.951 -48.0352L-178.449 434.364ZM-185.652 434.364L-185.229 434.789L-184.804 435.213L297.596 -47.1875L296.748 -48.0352L-185.652 434.364ZM-192.848 434.364L-192.424 434.789L-191.999 435.213L290.4 -47.1875L289.553 -48.0352L-192.848 434.364ZM-200.051 434.364L-199.627 434.789L-199.202 435.213L283.197 -47.1875L282.35 -48.0352L-200.051 434.364ZM-207.246 434.364L-206.822 434.789L-206.397 435.213L276.002 -47.1875L275.154 -48.0352L-207.246 434.364ZM-214.449 434.364L-214.025 434.789L-213.601 435.213L268.799 -47.1875L267.951 -48.0352L-214.449 434.364ZM-221.652 434.364L-221.229 434.789L-220.804 435.213L261.596 -47.1875L260.748 -48.0352L-221.652 434.364ZM-228.848 434.364L-228.424 434.789L-227.999 435.213L254.4 -47.1875L253.553 -48.0352L-228.848 434.364ZM-236.051 434.364L-235.627 434.789L-235.202 435.213L247.197 -47.1875L246.35 -48.0352L-236.051 434.364ZM-243.246 434.364L-242.822 434.789L-242.397 435.213L240.002 -47.1875L239.154 -48.0352L-243.246 434.364ZM-250.449 434.364L-250.025 434.789L-249.601 435.213L232.799 -47.1875L231.951 -48.0352L-250.449 434.364ZM-257.652 434.364L-257.229 434.789L-256.804 435.213L225.596 -47.1875L224.748 -48.0352L-257.652 434.364ZM-264.848 434.364L-264.424 434.789L-263.999 435.213L218.4 -47.1875L217.553 -48.0352L-264.848 434.364ZM-272.051 434.364L-271.627 434.789L-271.202 435.213L211.197 -47.1875L210.35 -48.0352L-272.051 434.364ZM-279.246 434.364L-278.822 434.789L-278.397 435.213L204.002 -47.1875L203.154 -48.0352L-279.246 434.364ZM-286.449 434.364L-286.025 434.789L-285.601 435.213L196.799 -47.1875L195.951 -48.0352L-286.449 434.364ZM-293.652 434.364L-293.229 434.789L-292.804 435.213L189.596 -47.1875L188.748 -48.0352L-293.652 434.364ZM-300.848 434.364L-300.424 434.789L-299.999 435.213L182.4 -47.1875L181.553 -48.0352L-300.848 434.364ZM-308.051 434.364L-307.627 434.789L-307.202 435.213L175.197 -47.1875L174.35 -48.0352L-308.051 434.364ZM-315.246 434.364L-314.822 434.789L-314.397 435.213L168.002 -47.1875L167.154 -48.0352L-315.246 434.364ZM-322.449 434.364L-322.025 434.789L-321.601 435.213L160.799 -47.1875L159.951 -48.0352L-322.449 434.364ZM-329.652 434.364L-329.229 434.789L-328.804 435.213L153.596 -47.1875L152.748 -48.0352L-329.652 434.364ZM-336.848 434.364L-336.424 434.789L-335.999 435.213L146.4 -47.1875L145.553 -48.0352L-336.848 434.364ZM-344.051 434.364L-343.627 434.789L-343.202 435.213L139.197 -47.1875L138.35 -48.0352L-344.051 434.364ZM-351.246 434.364L-350.822 434.789L-350.397 435.213L132.002 -47.1875L131.154 -48.0352L-351.246 434.364ZM-358.449 434.364L-358.025 434.789L-357.601 435.213L124.799 -47.1875L123.951 -48.0352L-358.449 434.364ZM-365.652 434.364L-365.229 434.789L-364.804 435.213L117.596 -47.1875L116.748 -48.0352L-365.652 434.364ZM-372.848 434.364L-372.424 434.789L-371.999 435.213L110.4 -47.1875L109.553 -48.0352L-372.848 434.364ZM-380.051 434.364L-379.627 434.789L-379.202 435.213L103.197 -47.1875L102.35 -48.0352L-380.051 434.364ZM-387.246 434.364L-386.822 434.789L-386.397 435.213L96.002 -47.1875L95.1543 -48.0352L-387.246 434.364ZM-394.449 434.364L-394.025 434.789L-393.601 435.213L88.7988 -47.1875L87.9512 -48.0352L-394.449 434.364ZM-401.652 434.364L-401.229 434.789L-400.804 435.213L81.5957 -47.1875L80.748 -48.0352L-401.652 434.364ZM-408.848 434.364L-408.424 434.789L-407.999 435.213L74.4004 -47.1875L73.5527 -48.0352L-408.848 434.364ZM-416.051 434.364L-415.627 434.789L-415.202 435.213L67.1973 -47.1875L66.3496 -48.0352L-416.051 434.364ZM-423.246 434.364L-422.822 434.789L-422.397 435.213L60.002 -47.1875L59.1543 -48.0352L-423.246 434.364ZM-430.449 434.364L-430.025 434.789L-429.601 435.213L52.7988 -47.1875L51.9512 -48.0352L-430.449 434.364ZM-437.652 434.364L-437.229 434.789L-436.804 435.213L45.5957 -47.1875L44.748 -48.0352L-437.652 434.364ZM-444.848 434.364L-444.424 434.789L-443.999 435.213L38.4004 -47.1875L37.5527 -48.0352L-444.848 434.364ZM-452.051 434.364L-451.627 434.789L-451.202 435.213L31.1973 -47.1875L30.3496 -48.0352L-452.051 434.364ZM-459.246 434.364L-458.822 434.789L-458.397 435.213L24.002 -47.1875L23.1543 -48.0352L-459.246 434.364ZM-466.449 434.364L-466.025 434.789L-465.601 435.213L16.7988 -47.1875L15.9512 -48.0352L-466.449 434.364ZM-473.652 434.364L-473.229 434.789L-472.804 435.213L9.5957 -47.1875L8.74805 -48.0352L-473.652 434.364ZM-480.848 434.364L-480.424 434.789L-479.999 435.213L2.40039 -47.1875L1.55273 -48.0352L-480.848 434.364ZM-488.051 434.364L-487.627 434.789L-487.202 435.213L-4.80273 -47.1875L-5.65039 -48.0352L-488.051 434.364ZM-495.246 434.364L-494.822 434.789L-494.397 435.213L-11.998 -47.1875L-12.8457 -48.0352L-495.246 434.364Z" fill="url(#paint2_linear_97_253)" fill-opacity="0.2"/>
</g>
<rect x="4" y="309.965" width="456" height="181.2" fill="url(#paint3_linear_97_253)"/>
<g filter="url(#filter0_f_97_253)">
<path d="M383.598 204.383L-141.886 -199.92L-49.1347 -297.44L401.003 184.453L383.598 204.383Z" fill="url(#paint4_linear_97_253)" fill-opacity="0.5"/>
</g>
</g>
<path d="M-129 80H29.1396C34.2771 80 38.4419 84.1648 38.4419 89.3023V108.198V127.093C38.4419 132.231 42.6067 136.395 47.7442 136.395H382.047C387.184 136.395 391.349 140.56 391.349 145.698V200.349C391.349 205.486 395.514 209.651 400.651 209.651H585.535" stroke="url(#paint5_radial_97_253)" stroke-width="1.16279"/>
<g filter="url(#filter1_ii_97_253)">
<rect x="110.535" y="107.905" width="245.929" height="64.0262" rx="32.0131" fill="#0D0E14"/>
<rect x="110.983" y="108.353" width="245.032" height="63.1298" rx="31.5649" stroke="white" stroke-width="0.896378"/>
<path fill-rule="evenodd" clip-rule="evenodd" d="M187.174 133.577L188.77 135.172C191.115 137.518 192.287 138.691 192.287 140.147C192.287 141.604 191.115 142.776 188.77 145.121C186.424 147.467 185.252 148.639 183.795 148.639C182.339 148.639 181.166 147.467 178.821 145.122L177.225 143.526C175.877 142.178 175.203 141.505 174.953 140.63C174.702 139.755 174.916 138.827 175.345 136.97L175.592 135.899C175.952 134.336 176.133 133.555 176.667 133.019C177.202 132.484 177.984 132.304 179.547 131.944L180.618 131.696C182.476 131.268 183.403 131.054 184.278 131.304C185.153 131.555 185.827 132.229 187.174 133.577ZM182.822 141.949C182.235 141.363 182.239 140.52 182.591 139.853C182.504 139.727 182.463 139.575 182.477 139.423C182.49 139.271 182.557 139.128 182.665 139.02C182.772 138.911 182.915 138.844 183.067 138.83C183.219 138.815 183.371 138.855 183.498 138.941C183.794 138.784 184.119 138.7 184.444 138.704C184.617 138.705 184.783 138.776 184.905 138.899C185.026 139.023 185.093 139.19 185.092 139.364C185.09 139.537 185.02 139.703 184.896 139.824C184.772 139.946 184.605 140.013 184.432 140.012C184.23 140.019 184.039 140.106 183.901 140.253C183.563 140.591 183.651 140.929 183.746 141.024C183.842 141.119 184.18 141.207 184.517 140.87C185.201 140.186 186.382 139.959 187.138 140.716C187.725 141.302 187.72 142.145 187.369 142.812C187.455 142.938 187.495 143.09 187.481 143.242C187.468 143.394 187.401 143.536 187.294 143.644C187.186 143.752 187.044 143.819 186.892 143.834C186.74 143.848 186.588 143.809 186.462 143.723C186.071 143.938 185.617 144.01 185.178 143.926C185.008 143.891 184.859 143.79 184.763 143.645C184.668 143.5 184.634 143.323 184.669 143.153C184.704 142.983 184.805 142.834 184.95 142.738C185.095 142.643 185.272 142.609 185.442 142.644C185.596 142.676 185.845 142.625 186.059 142.412C186.396 142.073 186.308 141.736 186.213 141.641C186.117 141.546 185.78 141.458 185.442 141.795C184.759 142.479 183.578 142.706 182.822 141.949ZM181.84 138.43C182.002 138.268 182.13 138.075 182.218 137.864C182.305 137.652 182.35 137.425 182.35 137.196C182.35 136.967 182.305 136.74 182.218 136.529C182.13 136.317 182.001 136.125 181.839 135.963C181.677 135.801 181.485 135.673 181.273 135.585C181.062 135.497 180.835 135.452 180.606 135.452C180.377 135.452 180.15 135.498 179.938 135.585C179.727 135.673 179.535 135.801 179.373 135.963C179.046 136.291 178.862 136.734 178.862 137.197C178.862 137.66 179.046 138.103 179.373 138.43C179.7 138.757 180.144 138.941 180.607 138.941C181.069 138.941 181.513 138.757 181.84 138.43Z" fill="url(#paint6_linear_97_253)"/>
<path d="M205.62 145.418V133.534H207.215V145.418H205.62ZM206.89 140.127V138.695L211.985 138.678V140.111L206.89 140.127ZM206.89 134.967V133.534H212.262V134.967H206.89ZM214.798 145.418V136.725H216.36V145.418H214.798ZM213.463 137.962V136.725H216.36V137.962H213.463ZM215.237 135.325C214.89 135.325 214.629 135.233 214.456 135.048C214.293 134.864 214.212 134.63 214.212 134.348C214.212 134.066 214.293 133.833 214.456 133.648C214.629 133.464 214.89 133.371 215.237 133.371C215.584 133.371 215.839 133.464 216.002 133.648C216.176 133.833 216.263 134.066 216.263 134.348C216.263 134.63 216.176 134.864 216.002 135.048C215.839 135.233 215.584 135.325 215.237 135.325ZM218.34 145.418L221.449 140.844L221.401 141.169L218.487 136.725H220.212L222.312 139.997H222.54L224.526 136.725H226.138L223.387 141.055L223.436 140.762L226.691 145.418H224.966L222.524 141.885H222.296L219.952 145.418H218.34ZM231.996 145.711C231.236 145.711 230.58 145.581 230.026 145.32C229.473 145.06 229.022 144.718 228.675 144.295C228.328 143.861 228.067 143.378 227.894 142.846C227.731 142.314 227.649 141.771 227.649 141.218V140.925C227.649 140.361 227.731 139.813 227.894 139.281C228.067 138.749 228.328 138.271 228.675 137.848C229.022 137.414 229.462 137.072 229.994 136.823C230.536 136.562 231.171 136.432 231.898 136.432C232.842 136.432 233.618 136.638 234.226 137.051C234.845 137.452 235.301 137.973 235.594 138.613C235.897 139.254 236.049 139.937 236.049 140.664V141.364H228.333V140.192H234.91L234.552 140.827C234.552 140.209 234.454 139.677 234.259 139.232C234.063 138.776 233.77 138.423 233.38 138.174C232.989 137.924 232.495 137.799 231.898 137.799C231.28 137.799 230.764 137.94 230.352 138.223C229.95 138.505 229.646 138.89 229.44 139.378C229.245 139.867 229.147 140.431 229.147 141.071C229.147 141.69 229.245 142.249 229.44 142.748C229.646 143.237 229.961 143.627 230.384 143.92C230.808 144.202 231.345 144.344 231.996 144.344C232.68 144.344 233.233 144.192 233.656 143.888C234.09 143.584 234.351 143.231 234.438 142.83H235.903C235.783 143.426 235.545 143.942 235.187 144.376C234.828 144.81 234.378 145.141 233.835 145.369C233.293 145.597 232.68 145.711 231.996 145.711ZM241.899 145.711C241.28 145.711 240.71 145.597 240.189 145.369C239.668 145.141 239.212 144.821 238.822 144.409C238.442 143.996 238.143 143.519 237.926 142.976C237.72 142.433 237.617 141.847 237.617 141.218V140.925C237.617 140.306 237.72 139.726 237.926 139.183C238.133 138.64 238.42 138.163 238.789 137.751C239.169 137.338 239.614 137.018 240.124 136.79C240.645 136.551 241.22 136.432 241.85 136.432C242.512 136.432 243.114 136.573 243.657 136.855C244.199 137.126 244.644 137.555 244.992 138.141C245.339 138.727 245.534 139.487 245.578 140.42L244.926 139.378V133.534H246.489V145.418H245.252V141.56H245.708C245.664 142.547 245.458 143.351 245.089 143.969C244.72 144.577 244.254 145.022 243.689 145.304C243.136 145.575 242.539 145.711 241.899 145.711ZM242.11 144.344C242.642 144.344 243.125 144.224 243.559 143.985C243.993 143.747 244.34 143.405 244.601 142.96C244.861 142.504 244.992 141.972 244.992 141.364V140.616C244.992 140.019 244.856 139.514 244.585 139.102C244.324 138.678 243.971 138.358 243.526 138.141C243.092 137.913 242.615 137.799 242.094 137.799C241.519 137.799 241.009 137.935 240.564 138.206C240.13 138.478 239.788 138.858 239.538 139.346C239.299 139.834 239.18 140.409 239.18 141.071C239.18 141.733 239.305 142.314 239.554 142.813C239.804 143.302 240.151 143.682 240.596 143.953C241.041 144.213 241.546 144.344 242.11 144.344ZM254.694 141.283V139.883H257.347C257.912 139.883 258.378 139.775 258.747 139.558C259.116 139.33 259.393 139.026 259.577 138.646C259.773 138.266 259.87 137.843 259.87 137.376C259.87 136.899 259.773 136.47 259.577 136.09C259.393 135.71 259.116 135.412 258.747 135.195C258.378 134.978 257.912 134.869 257.347 134.869H254.694V133.469H257.054C258.031 133.469 258.845 133.626 259.496 133.941C260.158 134.245 260.657 134.679 260.994 135.244C261.33 135.808 261.498 136.475 261.498 137.246V137.506C261.498 138.266 261.33 138.933 260.994 139.509C260.657 140.073 260.158 140.513 259.496 140.827C258.845 141.131 258.031 141.283 257.054 141.283H254.694ZM253.424 145.418V133.469H255.019V145.418H253.424ZM263.641 145.418V136.725H264.878V140.306H264.813C264.813 139.037 265.09 138.109 265.643 137.523C266.207 136.926 267.049 136.627 268.166 136.627H268.459V138.027H267.906C267.038 138.027 266.37 138.261 265.904 138.727C265.437 139.183 265.204 139.845 265.204 140.713V145.418H263.641ZM270.741 145.418V136.725H272.304V145.418H270.741ZM269.406 137.962V136.725H272.304V137.962H269.406ZM271.181 135.325C270.833 135.325 270.573 135.233 270.399 135.048C270.236 134.864 270.155 134.63 270.155 134.348C270.155 134.066 270.236 133.833 270.399 133.648C270.573 133.464 270.833 133.371 271.181 133.371C271.528 133.371 271.783 133.464 271.946 133.648C272.119 133.833 272.206 134.066 272.206 134.348C272.206 134.63 272.119 134.864 271.946 135.048C271.783 135.233 271.528 135.325 271.181 135.325ZM279.053 145.711C278.305 145.711 277.653 145.581 277.1 145.32C276.557 145.06 276.107 144.713 275.749 144.278C275.391 143.833 275.119 143.345 274.935 142.813C274.761 142.282 274.674 141.75 274.674 141.218V140.925C274.674 140.371 274.761 139.829 274.935 139.297C275.119 138.765 275.391 138.288 275.749 137.864C276.118 137.43 276.574 137.083 277.116 136.823C277.659 136.562 278.294 136.432 279.021 136.432C279.748 136.432 280.399 136.568 280.974 136.839C281.56 137.11 282.027 137.495 282.374 137.995C282.732 138.483 282.933 139.064 282.977 139.737H281.479C281.403 139.194 281.153 138.744 280.73 138.385C280.307 138.016 279.737 137.832 279.021 137.832C278.402 137.832 277.887 137.973 277.474 138.255C277.062 138.537 276.753 138.923 276.546 139.411C276.34 139.899 276.237 140.453 276.237 141.071C276.237 141.668 276.34 142.216 276.546 142.716C276.753 143.204 277.062 143.595 277.474 143.888C277.898 144.17 278.424 144.311 279.053 144.311C279.542 144.311 279.965 144.224 280.323 144.051C280.681 143.877 280.969 143.644 281.186 143.351C281.403 143.058 281.533 142.726 281.577 142.358H283.074C283.042 143.041 282.841 143.633 282.472 144.132C282.114 144.631 281.636 145.022 281.039 145.304C280.453 145.575 279.791 145.711 279.053 145.711ZM288.893 145.711C288.133 145.711 287.477 145.581 286.923 145.32C286.37 145.06 285.92 144.718 285.572 144.295C285.225 143.861 284.964 143.378 284.791 142.846C284.628 142.314 284.547 141.771 284.547 141.218V140.925C284.547 140.361 284.628 139.813 284.791 139.281C284.964 138.749 285.225 138.271 285.572 137.848C285.92 137.414 286.359 137.072 286.891 136.823C287.433 136.562 288.068 136.432 288.795 136.432C289.74 136.432 290.516 136.638 291.123 137.051C291.742 137.452 292.198 137.973 292.491 138.613C292.795 139.254 292.947 139.937 292.947 140.664V141.364H285.23V140.192H291.807L291.449 140.827C291.449 140.209 291.351 139.677 291.156 139.232C290.961 138.776 290.668 138.423 290.277 138.174C289.886 137.924 289.392 137.799 288.795 137.799C288.177 137.799 287.661 137.94 287.249 138.223C286.847 138.505 286.544 138.89 286.337 139.378C286.142 139.867 286.044 140.431 286.044 141.071C286.044 141.69 286.142 142.249 286.337 142.748C286.544 143.237 286.858 143.627 287.282 143.92C287.705 144.202 288.242 144.344 288.893 144.344C289.577 144.344 290.13 144.192 290.554 143.888C290.988 143.584 291.248 143.231 291.335 142.83H292.8C292.681 143.426 292.442 143.942 292.084 144.376C291.726 144.81 291.275 145.141 290.733 145.369C290.19 145.597 289.577 145.711 288.893 145.711Z" fill="#CFD3DA"/>
</g>
</g>
<path d="M0 24C0 10.0824 11.2824 -1.2 25.2 -1.2H430.8C444.718 -1.2 456 10.0824 456 24V24C456 11.4079 445.255 1.2 432 1.2H24C10.7452 1.2 0 11.4079 0 24V24ZM456 323H0H456ZM0 323V0V323ZM456 0V323V0Z" fill="#0E132F" mask="url(#path-1-inside-1_97_253)"/>
<path d="M0 24C0 10.0824 11.2824 -1.2 25.2 -1.2H430.8C444.718 -1.2 456 10.0824 456 24V24C456 11.4079 445.255 1.2 432 1.2H24C10.7452 1.2 0 11.4079 0 24V24ZM456 323H0H456ZM0 323V0V323ZM456 0V323V0Z" fill="url(#paint7_radial_97_253)" fill-opacity="0.4" mask="url(#path-1-inside-1_97_253)"/>
<defs>
<filter id="filter0_f_97_253" x="-241.043" y="-396.597" width="741.203" height="700.136" filterUnits="userSpaceOnUse" color-interpolation-filters="sRGB">
<feFlood flood-opacity="0" result="BackgroundImageFix"/>
<feBlend mode="normal" in="SourceGraphic" in2="BackgroundImageFix" result="shape"/>
<feGaussianBlur stdDeviation="49.5782" result="effect1_foregroundBlur_97_253"/>
</filter>
<filter id="filter1_ii_97_253" x="110.535" y="100.929" width="245.929" height="77.9799" filterUnits="userSpaceOnUse" color-interpolation-filters="sRGB">
<feFlood flood-opacity="0" result="BackgroundImageFix"/>
<feBlend mode="normal" in="SourceGraphic" in2="BackgroundImageFix" result="shape"/>
<feColorMatrix in="SourceAlpha" type="matrix" values="0 0 0 0 0 0 0 0 0 0 0 0 0 0 0 0 0 0 127 0" result="hardAlpha"/>
<feOffset dy="-6.97675"/>
<feGaussianBlur stdDeviation="3.83721"/>
<feComposite in2="hardAlpha" operator="arithmetic" k2="-1" k3="1"/>
<feColorMatrix type="matrix" values="0 0 0 0 0.670588 0 0 0 0 0.933333 0 0 0 0 0.509804 0 0 0 0.1 0"/>
<feBlend mode="lighten" in2="shape" result="effect1_innerShadow_97_253"/>
<feColorMatrix in="SourceAlpha" type="matrix" values="0 0 0 0 0 0 0 0 0 0 0 0 0 0 0 0 0 0 127 0" result="hardAlpha"/>
<feOffset dy="6.97675"/>
<feGaussianBlur stdDeviation="3.83721"/>
<feComposite in2="hardAlpha" operator="arithmetic" k2="-1" k3="1"/>
<feColorMatrix type="matrix" values="0 0 0 0 0.670588 0 0 0 0 0.933333 0 0 0 0 0.509804 0 0 0 0.1 0"/>
<feBlend mode="lighten" in2="effect1_innerShadow_97_253" result="effect2_innerShadow_97_253"/>
</filter>
<linearGradient id="paint0_linear_97_253" x1="228" y1="0" x2="228" y2="323" gradientUnits="userSpaceOnUse">
<stop stop-color="#00070A"/>
<stop offset="1" stop-color="#00070A" stop-opacity="0"/>
</linearGradient>
<linearGradient id="paint1_linear_97_253" x1="-87" y1="-216.318" x2="224.558" y2="218.527" gradientUnits="userSpaceOnUse">
<stop stop-color="#B5D3FD" stop-opacity="0"/>
<stop offset="0.457113" stop-color="#B5D3FD"/>
<stop offset="0.757594" stop-color="#B5D3FD" stop-opacity="0"/>
</linearGradient>
<linearGradient id="paint2_linear_97_253" x1="710.151" y1="-156.635" x2="39.3518" y2="404.363" gradientUnits="userSpaceOnUse">
<stop stop-color="white"/>
<stop offset="0.7583" stop-color="white" stop-opacity="0"/>
</linearGradient>
<linearGradient id="paint3_linear_97_253" x1="232" y1="309.965" x2="232" y2="491.165" gradientUnits="userSpaceOnUse">
<stop stop-color="#000211" stop-opacity="0"/>
<stop offset="1" stop-color="#000211"/>
</linearGradient>
<linearGradient id="paint4_linear_97_253" x1="97.4043" y1="27.6703" x2="190.156" y2="-69.8494" gradientUnits="userSpaceOnUse">
<stop stop-color="#6E6EB8"/>
<stop offset="1" stop-color="#335FFF" stop-opacity="0"/>
</linearGradient>
<radialGradient id="paint5_radial_97_253" cx="0" cy="0" r="1" gradientUnits="userSpaceOnUse" gradientTransform="translate(227.977 130.581) scale(313.372 703.267)">
<stop stop-color="#A6A7AD"/>
<stop offset="1" stop-color="#13161B"/>
</radialGradient>
<linearGradient id="paint6_linear_97_253" x1="174.846" y1="139.918" x2="192.287" y2="139.918" gradientUnits="userSpaceOnUse">
<stop stop-color="white"/>
<stop offset="1" stop-color="#01ACFF"/>
</linearGradient>
<radialGradient id="paint7_radial_97_253" cx="0" cy="0" r="1" gradientTransform="matrix(0.724662 88.2507 -125.322 7.05109 46.7593 -3.89583)" gradientUnits="userSpaceOnUse">
<stop stop-color="#CCD7FF"/>
<stop offset="0.639401" stop-color="#CCD7FF" stop-opacity="0"/>
</radialGradient>
<clipPath id="clip0_97_253">
<path d="M0 24C0 10.7452 10.7452 0 24 0H432C445.255 0 456 10.7452 456 24V323H0V24Z" fill="white"/>
</clipPath>
<clipPath id="clip1_97_253">
<rect width="456" height="539" fill="white" transform="translate(0 -48.0352)"/>
</clipPath>
</defs>
</svg>
