<svg width="47" height="47" viewBox="0 0 47 47" fill="none" xmlns="http://www.w3.org/2000/svg">
<path d="M5.46237 26.4006C5.898 26.4006 6.25115 26.0474 6.25115 25.6118C6.25115 25.1761 5.898 24.823 5.46237 24.823C5.02673 24.823 4.67358 25.1761 4.67358 25.6118C4.67358 26.0474 5.02673 26.4006 5.46237 26.4006Z" fill="#01AAFF"/>
<path d="M43.2011 16.5065C43.6368 16.5065 43.9899 16.1534 43.9899 15.7177C43.9899 15.2821 43.6368 14.929 43.2011 14.929C42.7655 14.929 42.4124 15.2821 42.4124 15.7177C42.4124 16.1534 42.7655 16.5065 43.2011 16.5065Z" fill="#01AAFF"/>
<path d="M5.91097 7.31999C5.91097 6.51568 5.25662 5.86133 4.45231 5.86133C3.64801 5.86133 2.99365 6.51568 2.99365 7.31999C2.99365 8.12429 3.64801 8.77865 4.45231 8.77865C5.25662 8.77865 5.91097 8.12438 5.91097 7.31999Z" fill="#01AAFF"/>
<path d="M34.2542 30.4713C31.6237 34.1507 27.3985 36.3334 22.8607 36.3334C18.3237 36.3334 14.0978 34.1506 11.4658 30.4712C7.23493 33.3963 4.72217 38.1495 4.72217 43.2736V44.9464H40.9991V43.2736C40.9991 38.1492 38.486 33.396 34.2542 30.4713Z" fill="#01AAFF"/>
<path d="M27.633 12.9649H29.7748C30.0859 12.9649 30.3057 13.2719 30.2038 13.5669L29.341 16.0639C30.3951 15.2045 31.7966 14.0619 33.017 13.0669C33.098 13.0009 33.1992 12.9648 33.3038 12.9648H39.115C40.6827 12.9648 41.958 11.6895 41.958 10.1219V5.12649C41.958 3.55891 40.6827 2.28369 39.115 2.28369H27.633C26.0663 2.28369 24.7917 3.559 24.7917 5.12649V10.1219C24.7917 11.6895 26.0663 12.9649 27.633 12.9649ZM27.2053 5.64197H39.5443C39.7949 5.64197 39.9981 5.8452 39.9981 6.09581C39.9981 6.34643 39.7949 6.54966 39.5443 6.54966H27.2053C26.9547 6.54966 26.7515 6.34643 26.7515 6.09581C26.7515 5.8452 26.9547 5.64197 27.2053 5.64197ZM27.2053 8.45581H39.5443C39.7949 8.45581 39.9981 8.65904 39.9981 8.90966C39.9981 9.16027 39.7949 9.3635 39.5443 9.3635H27.2053C26.9547 9.3635 26.7515 9.16027 26.7515 8.90966C26.7515 8.65904 26.9547 8.45581 27.2053 8.45581Z" fill="#01AAFF"/>
<path d="M41.4529 27.897C40.8196 27.897 40.3044 28.4122 40.3044 29.0456C40.3044 29.6789 40.8196 30.1941 41.4529 30.1941C42.0863 30.1941 42.6015 29.6789 42.6015 29.0456C42.6015 28.4123 42.0863 27.897 41.4529 27.897Z" fill="#01AAFF"/>
<path d="M22.8603 33.1516C28.8284 33.1516 33.6837 28.2949 33.6837 22.3252C33.6837 19.8812 32.8555 17.5113 31.3435 15.6024L28.6772 17.7762C28.594 17.844 28.4923 17.8783 28.3904 17.8783C28.0792 17.8783 27.8597 17.5707 27.9615 17.2763L29.1375 13.8729H27.6326C26.0834 13.8729 24.7506 12.9278 24.18 11.5836C17.5952 10.8006 12.0354 15.9469 12.0354 22.3252C12.0355 28.2949 16.8915 33.1516 22.8603 33.1516Z" fill="#01AAFF"/>
</svg>
