<svg width="34" height="34" viewBox="0 0 34 34" fill="none" xmlns="http://www.w3.org/2000/svg">
<path d="M16.875 2.25C17.4855 2.25187 18.0785 2.45446 18.5625 2.82656V2.25C18.5625 1.80245 18.3847 1.37322 18.0682 1.05676C17.7518 0.74029 17.3226 0.5625 16.875 0.5625H2.25C1.80245 0.5625 1.37322 0.74029 1.05676 1.05676C0.74029 1.37322 0.5625 1.80245 0.5625 2.25V2.82544C1.04672 2.45385 1.63963 2.25167 2.25 2.25H16.875Z" fill="#01ACFF"/>
<path d="M24.0218 20.8125L22.8164 24.1875H25.5597L24.3537 20.8125H24.0218Z" fill="#01ACFF"/>
<path d="M9.5625 12.3751C10.2627 12.375 10.9452 12.1557 11.5144 11.7479L10.2892 10.5233L11.0852 9.7274L12.3103 10.9525C12.7472 10.3358 12.9642 9.59027 12.9266 8.83546C12.8889 8.08065 12.5987 7.36038 12.1027 6.79025C11.6066 6.22012 10.9333 5.83319 10.1909 5.69157C9.44858 5.54995 8.68017 5.66184 8.00903 6.0093C7.33788 6.35675 6.80294 6.91962 6.49004 7.60755C6.17715 8.29549 6.10445 9.0686 6.28362 9.8028C6.4628 10.537 6.88344 11.1897 7.47805 11.6562C8.07266 12.1227 8.80675 12.3758 9.5625 12.3751Z" fill="#01ACFF"/>
<path d="M2.25 15.1875H6.1875C6.28934 15.1875 6.38927 15.2151 6.47663 15.2674C6.56399 15.3198 6.63551 15.3948 6.68355 15.4846C6.7316 15.5744 6.75436 15.6756 6.74942 15.7773C6.74448 15.879 6.71202 15.9775 6.6555 16.0622L5.45512 17.8622L11.5909 15.2331C11.6608 15.2028 11.7363 15.1873 11.8125 15.1875H16.875C17.3226 15.1875 17.7518 15.0097 18.0682 14.6932C18.3847 14.3768 18.5625 13.9476 18.5625 13.5V5.0625C18.5625 4.61495 18.3847 4.18572 18.0682 3.86926C17.7518 3.55279 17.3226 3.375 16.875 3.375H2.25C1.80245 3.375 1.37322 3.55279 1.05676 3.86926C0.74029 4.18572 0.5625 4.61495 0.5625 5.0625V13.5C0.5625 13.9476 0.74029 14.3768 1.05676 14.6932C1.37322 15.0097 1.80245 15.1875 2.25 15.1875ZM9.5625 4.5C10.4049 4.49833 11.2307 4.73354 11.9458 5.17878C12.6609 5.62403 13.2364 6.26137 13.6065 7.01804C13.9767 7.7747 14.1267 8.62021 14.0393 9.45804C13.952 10.2959 13.6308 11.0922 13.1124 11.7562L13.8999 12.5437L13.104 13.3397L12.3165 12.5522C11.7507 12.9922 11.0881 13.2907 10.3836 13.4228C9.67918 13.555 8.95337 13.517 8.26659 13.3119C7.57982 13.1069 6.95196 12.7408 6.43527 12.2441C5.91857 11.7474 5.528 11.1344 5.29606 10.4563C5.06412 9.7781 4.99751 9.05435 5.1018 8.34525C5.20608 7.63615 5.47823 6.96222 5.89559 6.37955C6.31295 5.79688 6.86346 5.32234 7.50127 4.99541C8.13909 4.66848 8.84578 4.49863 9.5625 4.5Z" fill="#01ACFF"/>
<path d="M31.5 18H16.875C16.4274 18 15.9982 18.1778 15.6818 18.4943C15.3653 18.8107 15.1875 19.2399 15.1875 19.6875V28.125C15.1875 28.5726 15.3653 29.0018 15.6818 29.3182C15.9982 29.6347 16.4274 29.8125 16.875 29.8125H21.9375C22.0135 29.8126 22.0887 29.8281 22.1586 29.8581L28.2937 32.4872L27.0934 30.6872C27.0368 30.6024 27.0043 30.5038 26.9994 30.402C26.9945 30.3002 27.0174 30.199 27.0656 30.1091C27.1138 30.0193 27.1854 29.9443 27.273 29.892C27.3605 29.8398 27.4606 29.8123 27.5625 29.8125H31.5C31.9476 29.8125 32.3768 29.6347 32.6932 29.3182C33.0097 29.0018 33.1875 28.5726 33.1875 28.125V19.6819C33.186 19.2353 33.0076 18.8075 32.6913 18.4923C32.375 18.177 31.9466 18 31.5 18ZM27.0326 28.3134L25.9605 25.3125H22.4168L21.3446 28.314L20.2854 27.936L23.0979 20.061C23.1368 19.9521 23.2082 19.8579 23.3025 19.791C23.3968 19.7242 23.5094 19.6881 23.625 19.6875H24.75C24.866 19.6874 24.9792 19.7232 25.074 19.79C25.1689 19.8568 25.2408 19.9512 25.2799 20.0604L28.0924 27.9354L27.0326 28.3134Z" fill="#01ACFF"/>
<path d="M31.5 15.1875H19.1109C18.851 15.5355 18.5137 15.8184 18.1256 16.0136C17.7376 16.2089 17.3094 16.3112 16.875 16.3125H15.2966C15.2281 16.4923 15.1912 16.6826 15.1875 16.875V17.451C15.6716 17.0791 16.2645 16.8767 16.875 16.875H31.5C32.1104 16.8769 32.7033 17.0793 33.1875 17.451V16.875C33.1875 16.4274 33.0097 15.9982 32.6932 15.6818C32.3768 15.3653 31.9476 15.1875 31.5 15.1875Z" fill="#01ACFF"/>
<path d="M31.5 4.5L29.25 2.25L24.75 9L31.5 4.5Z" fill="#01ACFF"/>
<path d="M27 10.6875L33.75 12.375V9L27 10.6875Z" fill="#01ACFF"/>
<path d="M24.75 0H21.375L23.0625 6.75L24.75 0Z" fill="#01ACFF"/>
<path d="M2.25 29.25L4.5 31.5L9 24.75L2.25 29.25Z" fill="#01ACFF"/>
<path d="M9 33.75H12.375L10.6875 27L9 33.75Z" fill="#01ACFF"/>
<path d="M0 21.375V24.75L6.75 23.0625L0 21.375Z" fill="#01ACFF"/>
</svg>
