<svg width="240" height="398" viewBox="0 0 240 398" fill="none" xmlns="http://www.w3.org/2000/svg">
<rect y="0.643066" width="240" height="397.143" rx="23.9669" fill="#0D0D0D"/>
<rect x="0.748966" y="1.39203" width="238.502" height="395.645" rx="23.2179" stroke="white" stroke-opacity="0.13" stroke-width="1.49793"/>
<rect x="101.117" y="18.9165" width="36.5482" height="9.74584" rx="4.87292" fill="#70BEFA" fill-opacity="0.3"/>
<rect x="29.2422" y="63.9907" width="54.8223" height="15.837" rx="2.99586" fill="#70BEFA" fill-opacity="0.3"/>
<rect x="29.2422" y="85.9189" width="164.467" height="4.87292" rx="2.43646" fill="#70BEFA" fill-opacity="0.3"/>
<rect x="29.2422" y="138.303" width="43.8579" height="4.87292" rx="2.43646" fill="#70BEFA" fill-opacity="0.3"/>
<rect x="29.2422" y="149.267" width="30.4569" height="4.87292" rx="2.43646" fill="#70BEFA" fill-opacity="0.3"/>
<rect x="170.559" y="138.303" width="23.1472" height="4.87292" rx="2.43646" fill="#70BEFA" fill-opacity="0.3"/>
<rect x="127.918" y="149.267" width="15.8376" height="4.87292" rx="2.43646" fill="#70BEFA" fill-opacity="0.3"/>
<rect x="79.1875" y="138.303" width="85.2792" height="4.87292" rx="2.43646" fill="#70BEFA" fill-opacity="0.3"/>
<rect x="64.5703" y="149.267" width="58.4772" height="4.87292" rx="2.43646" fill="#70BEFA" fill-opacity="0.3"/>
<line x1="19.4922" y1="109.535" x2="220.507" y2="109.535" stroke="white" stroke-opacity="0.04" stroke-width="1.49793"/>
<line x1="19.4922" y1="164.355" x2="220.507" y2="164.355" stroke="white" stroke-opacity="0.04" stroke-width="1.49793"/>
<path d="M39.3221 118.195C39.6064 118.271 39.7751 118.563 39.6989 118.848L36.8751 129.386C36.7989 129.671 36.5066 129.839 36.2223 129.763C35.9379 129.687 35.7692 129.395 35.8454 129.11L38.6693 118.572C38.7455 118.288 39.0377 118.119 39.3221 118.195Z" fill="#1AB4CC"/>
<path d="M40.9293 120.364C41.1262 120.145 41.4632 120.128 41.682 120.325L42.9168 121.436C43.4401 121.907 43.8741 122.297 44.1722 122.652C44.4856 123.024 44.7084 123.424 44.7084 123.919C44.7084 124.413 44.4856 124.813 44.1722 125.185C43.8741 125.54 43.4401 125.93 42.9168 126.401L41.682 127.513C41.4632 127.709 41.1262 127.692 40.9293 127.473C40.7324 127.254 40.7501 126.917 40.9689 126.72L42.1745 125.635C42.7344 125.131 43.1119 124.79 43.3565 124.499C43.5912 124.22 43.6424 124.057 43.6424 123.919C43.6424 123.78 43.5912 123.617 43.3565 123.338C43.1119 123.047 42.7344 122.706 42.1745 122.202L40.9689 121.117C40.7501 120.92 40.7324 120.583 40.9293 120.364Z" fill="#1AB4CC"/>
<path d="M34.5755 121.117C34.7943 120.92 34.812 120.583 34.6151 120.364C34.4181 120.145 34.0811 120.128 33.8623 120.325L32.6276 121.436C32.1043 121.907 31.6702 122.297 31.3722 122.652C31.0587 123.024 30.8359 123.424 30.8359 123.919C30.8359 124.413 31.0587 124.813 31.3722 125.185C31.6702 125.54 32.1043 125.93 32.6276 126.401L33.8623 127.513C34.0811 127.709 34.4181 127.692 34.6151 127.473C34.812 127.254 34.7943 126.917 34.5755 126.72L33.3698 125.635C32.8099 125.131 32.4324 124.79 32.1879 124.499C31.9532 124.22 31.9019 124.057 31.9019 123.919C31.9019 123.78 31.9532 123.617 32.1879 123.338C32.4324 123.047 32.8099 122.706 33.3698 122.202L34.5755 121.117Z" fill="#1AB4CC"/>
</svg>
